<svg width="30" height="30" viewBox="0 0 30 30" fill="none" xmlns="http://www.w3.org/2000/svg">
<path fill-rule="evenodd" clip-rule="evenodd" d="M6 0C2.68652 0 0 2.68628 0 6V24C0 27.3137 2.68652 30 6 30H24C27.3135 30 30 27.3137 30 24V6C30 2.68628 27.3135 0 24 0H6ZM18.75 13.5C18.75 15.0645 17.792 16.4052 16.4307 16.9675C17.8252 17.1997 19.1074 17.7657 20.1914 18.5802L18.8096 20.4191C17.749 19.6217 16.4316 19.1497 15 19.1497C13.5693 19.1497 12.251 19.6217 11.1904 20.4191L9.80859 18.5802C10.8926 17.7657 12.1748 17.1998 13.5693 16.9675C12.208 16.4053 11.25 15.0645 11.25 13.5C11.25 11.429 12.9287 9.75 15 9.75C17.0713 9.75 18.75 11.429 18.75 13.5Z" fill="black"/>
</svg>
